# xmcd CD database file generated by OrangeCD 6.4
#
# Track frame offsets:
#	150
#	21061
#	41032
#	55142
#	79943
#	103793
#	121582
#	137782
#	163142
#	181355
#	201654
#	221966
#	246027
#	267410
#	294574
#
# Disc length: 4126 seconds
#
# Revision: 1
# Processed by: cddbd v1.5.2PL0 Copyright (c) Steve Scherf et al.
# Submitted via: OrangeCD 6.4
#
DISCID=e7101c0f
DTITLE=Various Artist - Classic Rock Presents: Blues Breakers
DYEAR=2010
DGENRE=Blues
TTITLE0=Joe Bonamassa - Spanish Boots
TTITLE1=Oli Brown - Evil Soul
TTITLE2=Philip Sayce - Scars
TTITLE3=Sandi Thom - Belly Of The Blues
TTITLE4=Jay Jesse Johnson - Rattlesnake Stomp
TTITLE5=The Slide - Hit Me
TTITLE6=Stefan Schill - Game Called Love
TTITLE7=Wilson T. King - Vigilante Man
TTITLE8=P-A-U-L - I Will Never Tell
TTITLE9=Scott McKeon - What I've Become
TTITLE10=Krissy Matthews - Stone Cold Pizza
TTITLE11=Danny Bryant's RedEyeBand - Just As I Am
TTITLE12=Mitch Laddie - This Time Around
TTITLE13=Aynsley Lister - What's It All About
TTITLE14=Mayor McCa - Hair Farmer
EXTD=
EXTT0=
EXTT1=
EXTT2=
EXTT3=
EXTT4=
EXTT5=
EXTT6=
EXTT7=
EXTT8=
EXTT9=
EXTT10=
EXTT11=
EXTT12=
EXTT13=
EXTT14=
PLAYORDER=
